<svg id="svg" xmlns="http://www.w3.org/2000/svg" xmlns:xlink="http://www.w3.org/1999/xlink" width="400" height="369.3333333333333" viewBox="0, 0, 400,369.3333333333333"><g id="svgg" fill="currentColor"><path id="path0" d="M152.537 8.117 C 141.322 9.426,120.078 14.905,111.074 18.810 C 99.054 24.024,97.999 24.430,97.025 24.224 C 93.022 23.374,63.539 45.403,49.148 59.997 C 25.780 83.693,12.753 107.259,3.754 142.112 C 0.033 156.526,-0.772 203.570,2.456 218.000 C 26.425 325.140,130.415 384.494,233.333 349.777 C 247.989 344.833,290.728 321.385,299.759 313.333 C 300.993 312.233,304.402 309.591,307.334 307.460 C 340.231 283.568,376.732 230.140,394.806 179.428 C 402.080 159.020,401.574 155.217,393.421 169.000 C 383.904 185.089,354.567 224.274,346.879 231.165 C 344.092 233.664,344.092 233.663,345.409 229.165 C 349.941 213.698,351.173 203.759,351.173 182.667 C 351.173 75.894,259.797 -4.402,152.537 8.117 M189.808 44.748 C 206.590 49.013,207.708 50.146,199.680 54.754 C 190.709 59.904,189.243 60.248,185.819 58.004 C 184.096 56.875,180.014 55.585,176.747 55.138 C 171.910 54.475,170.573 53.675,169.540 50.828 C 168.843 48.906,167.847 46.283,167.327 45.000 C 166.066 41.887,178.022 41.754,189.808 44.748 M152.352 50.676 C 155.996 59.086,151.085 71.663,144.699 70.276 C 135.422 68.262,119.708 65.359,114.172 64.636 C 110.519 64.159,108.186 63.285,108.839 62.638 C 112.918 58.596,142.576 45.539,148.019 45.389 C 149.129 45.358,151.079 47.737,152.352 50.676 M285.588 67.000 C 311.754 92.272,332.678 132.638,333.955 160.308 C 334.048 162.315,314.309 181.333,312.134 181.333 C 310.887 181.333,309.147 180.613,308.267 179.733 C 307.299 178.765,303.022 178.189,297.446 178.275 L 288.225 178.417 283.209 170.209 C 280.450 165.694,275.638 158.646,272.515 154.546 L 266.838 147.091 269.295 143.051 C 279.668 125.993,283.115 89.284,276.436 67.000 C 274.843 61.683,273.998 57.333,274.559 57.333 C 275.120 57.333,280.083 61.683,285.588 67.000 M226.280 66.333 C 235.354 76.382,240.387 89.521,241.073 104.955 C 241.786 120.991,242.174 120.782,229.356 111.261 C 223.872 107.187,214.770 101.129,209.128 97.797 L 198.870 91.740 198.999 83.201 C 199.147 73.504,199.397 73.159,211.333 66.222 C 221.387 60.378,220.898 60.374,226.280 66.333 M111.009 80.642 C 139.922 84.825,152.278 89.550,147.262 94.506 C 146.801 94.961,143.948 98.183,140.922 101.667 C 134.887 108.613,133.333 109.364,133.333 105.333 C 133.333 103.852,132.444 102.667,131.333 102.667 C 129.855 102.667,129.333 104.214,129.333 108.597 C 129.333 113.827,128.297 115.911,120.548 126.263 C 115.716 132.719,109.361 142.350,106.427 147.667 C 103.493 152.983,100.589 157.333,99.974 157.333 C 98.358 157.333,95.176 145.376,92.698 130.000 C 89.095 107.637,86.506 103.837,79.307 110.355 C 62.502 125.567,61.629 166.213,77.499 194.466 L 81.506 201.599 79.230 208.466 C 74.690 222.167,73.629 224.605,71.830 225.467 C 58.961 231.629,59.448 231.818,54.299 218.667 C 38.320 177.853,43.478 132.594,67.729 100.824 C 85.751 77.215,86.122 77.042,111.009 80.642 M340.000 103.421 C 340.000 103.836,340.621 105.336,341.380 106.754 C 343.431 110.587,345.542 109.917,343.757 106.000 C 342.413 103.049,340.000 101.393,340.000 103.421 M172.003 108.749 C 173.571 109.183,186.525 144.590,190.144 158.333 C 190.862 161.059,175.834 158.013,167.392 153.721 C 154.243 147.036,139.522 129.038,143.065 123.978 C 153.664 108.846,160.105 105.457,172.003 108.749 M203.148 113.260 C 213.494 119.545,232.278 133.705,233.014 135.773 C 233.636 137.522,224.107 146.631,216.699 151.370 C 208.767 156.444,205.333 157.179,205.333 153.804 C 205.333 152.596,202.033 141.751,198.000 129.705 C 193.967 117.658,190.667 107.547,190.667 107.234 C 190.667 105.945,192.816 106.983,203.148 113.260 M139.225 144.288 C 147.932 162.685,175.094 182.667,191.394 182.667 C 194.155 182.667,194.511 183.583,195.924 194.333 C 196.767 200.750,198.008 209.878,198.681 214.617 C 200.137 224.861,199.758 225.284,189.108 225.313 C 162.712 225.384,128.963 206.690,112.901 183.101 L 109.135 177.570 112.858 169.785 C 119.077 156.780,132.426 135.953,134.492 136.032 C 134.955 136.050,137.085 139.765,139.225 144.288 M263.044 169.667 C 275.389 187.266,275.346 187.150,272.672 195.983 C 271.157 200.987,270.637 205.426,271.210 208.478 L 272.098 213.211 261.716 219.318 C 239.354 232.472,229.492 236.557,226.544 233.889 C 223.976 231.565,224.052 231.462,230.323 228.759 C 240.430 224.402,257.333 214.727,257.333 213.299 C 257.333 211.468,255.726 211.676,250.774 214.147 C 244.077 217.487,217.397 224.508,216.147 223.259 C 215.848 222.959,214.841 215.352,213.910 206.355 C 212.979 197.357,211.829 188.451,211.355 186.563 C 210.536 183.297,210.868 183.046,218.180 181.410 C 222.408 180.463,226.797 179.197,227.933 178.595 C 229.070 177.993,232.736 176.214,236.079 174.641 C 239.423 173.068,245.123 169.462,248.746 166.627 C 257.097 160.092,256.193 159.900,263.044 169.667 M335.242 193.667 C 333.817 211.409,327.713 235.960,321.630 248.416 L 319.148 253.499 317.410 247.749 C 316.455 244.587,314.798 239.151,313.730 235.668 L 311.786 229.336 317.007 224.167 C 323.234 218.002,326.076 209.444,324.855 200.534 C 324.111 195.102,331.337 184.000,335.617 184.000 C 335.838 184.000,335.669 188.350,335.242 193.667 M116.000 231.978 C 129.924 239.115,151.234 244.000,168.443 244.000 L 178.667 244.000 178.667 249.070 L 178.667 254.140 165.667 255.750 C 148.846 257.832,135.855 257.711,119.333 255.317 C 112.000 254.254,105.550 253.374,105.000 253.359 C 104.450 253.345,104.000 252.096,104.000 250.584 C 104.000 245.937,97.581 234.149,93.518 231.333 L 89.669 228.667 91.646 222.487 L 93.623 216.308 102.478 222.947 C 107.349 226.599,113.433 230.663,116.000 231.978 M284.703 228.468 C 286.150 229.458,289.001 230.674,291.038 231.169 C 293.485 231.764,295.380 233.530,296.618 236.368 C 298.354 240.351,305.362 264.873,305.342 266.898 C 305.316 269.519,275.385 286.543,261.333 291.929 C 257.300 293.475,252.800 295.313,251.333 296.013 C 248.166 297.525,223.186 304.000,220.521 304.000 C 219.053 304.000,218.667 301.022,218.667 289.701 L 218.667 275.401 223.142 271.367 C 228.157 266.846,230.743 262.546,231.938 256.738 C 232.633 253.363,234.618 251.844,246.040 245.949 C 269.502 233.838,271.255 232.890,275.976 229.752 C 281.426 226.130,281.314 226.147,284.703 228.468 M114.672 271.270 C 132.494 273.935,157.012 273.900,172.927 271.187 C 185.196 269.096,185.591 269.109,188.425 271.694 C 190.025 273.154,193.578 275.138,196.322 276.104 C 202.226 278.183,203.029 280.809,202.409 296.000 L 202.000 306.000 186.404 305.773 C 156.217 305.335,127.473 295.685,101.743 277.353 C 95.374 272.815,94.991 272.247,96.968 270.270 C 98.150 269.088,99.513 268.365,99.996 268.664 C 100.479 268.963,107.084 270.136,114.672 271.270 " stroke="none" fill="#000000" fill-rule="evenodd"></path></g></svg>